<?xml version="1.0" encoding="UTF-8" standalone="no"?>
<svg
   width="85.561752mm"
   height="83.654404mm"
   viewBox="0 0 33.11442 32.378501"
   preserveAspectRatio="xMidYMid"
   version="1.1"
   id="svg181"
   sodipodi:docname="gnu.svg"
   inkscape:version="1.2.1 (9c6d41e410, 2022-07-14)"
   xmlns:inkscape="http://www.inkscape.org/namespaces/inkscape"
   xmlns:sodipodi="http://sodipodi.sourceforge.net/DTD/sodipodi-0.dtd"
   xmlns="http://www.w3.org/2000/svg"
   xmlns:svg="http://www.w3.org/2000/svg"
   xmlns:rdf="http://www.w3.org/1999/02/22-rdf-syntax-ns#"
   xmlns:cc="http://creativecommons.org/ns#">
  <defs
     id="defs185" />
  <sodipodi:namedview
     id="namedview183"
     pagecolor="#ffffff"
     bordercolor="#666666"
     borderopacity="1.0"
     inkscape:showpageshadow="2"
     inkscape:pageopacity="0.0"
     inkscape:pagecheckerboard="0"
     inkscape:deskcolor="#d1d1d1"
     showgrid="false"
     inkscape:zoom="2.47015"
     inkscape:cx="161.93349"
     inkscape:cy="231.7673"
     inkscape:window-width="2158"
     inkscape:window-height="1412"
     inkscape:window-x="1080"
     inkscape:window-y="1106"
     inkscape:window-maximized="1"
     inkscape:current-layer="svg181"
     inkscape:document-units="mm" />
  <path
     d="M 6.9981525,18.853798 C 6.773155,18.86897 6.4800747,18.969863 6.2836071,19.322208 6.1230613,19.609971 5.7471144,19.655879 5.5716552,19.597911 5.2790937,19.501298 4.9053513,19.434252 4.5432804,19.69219 4.1814689,19.950126 3.7903493,19.755085 3.8589508,19.28499 3.9275523,18.814763 4.0973055,18.396022 4.5482084,18.136659 5.5326211,17.57034 4.8484212,17.176237 5.3888043,16.607714 5.9300951,16.038281 5.8105287,15.86399 5.7926327,15.090439 3.9628258,14.815514 2.9256326,14.288229 1.7677059,12.841371 0.6095197,11.394514 0.16069188,10.203519 0.04060675,8.3894031 -0.07934871,6.5755471 0.02465591,5.3997243 0.8083216,3.8939916 1.592117,2.3882589 2.4174105,1.6634687 3.8474092,0.91157489 5.2774077,0.15981086 6.6784874,-0.02018716 7.9736172,0.00172902 c 1.2951299,0.0217865 2.1581608,0.11671341 2.8899528,0.53428807 0.731664,0.4175747 1.40108,0.94278501 1.827862,0.94667551 0.426782,0.00376 0.717399,-0.1080248 0.92476,-0.2670144 0.05537,1.4062669 -1.210189,1.5282972 -2.342439,1.5581241 C 10.141634,2.8033696 9.4457628,2.3350895 8.4029929,2.5092518 7.3600937,2.6835438 5.6527062,3.1580487 4.8209286,4.6058137 3.9891511,6.0537085 3.9607509,6.5654319 4.0298711,7.7795107 c 0.06912,1.2142085 1.114224,2.1200351 1.7040158,2.1298901 0.5899215,0.00985 0.7215483,-0.160935 1.2378106,-0.4977177 0.5163919,-0.3367832 3.1524295,-3.5999605 4.0519005,-4.3329207 0.899471,-0.7329602 1.787012,-0.9592546 2.745488,-0.9710556 0.958477,-0.011672 1.203445,0.020749 1.976347,0.3375611 0.772902,0.3166824 1.248056,0.9001198 1.871305,1.2567441 0.318498,-0.1875195 0.516392,-0.4673723 0.808565,-0.6810876 1.045363,-0.7639541 1.588599,-0.9698884 2.830948,-0.8488956 0.714027,0.069509 1.614536,0.4773579 2.151677,0.9444709 0.956661,0.8317776 1.74694,1.989834 2.385622,2.8694641 0.497199,0.6851076 1.082452,1.5048246 1.91786,1.761075 0.912181,0.2795952 1.598585,-0.9018049 1.699348,-1.557086 0.05706,-0.3712783 0.131627,-0.696779 0.132276,-1.1054056 5.18e-4,-0.4087563 -0.04124,-0.9047883 -0.15899,-1.3306626 C 29.266163,5.3278807 29.064378,4.9040813 28.845865,4.5526443 28.490279,3.9807486 27.908268,3.3821384 27.302913,3.0741448 26.963148,2.9012792 26.163661,2.5871904 25.659848,2.5761675 25.042304,2.5626806 24.57182,2.7701712 24.001091,2.8090756 23.310018,2.85615 22.075709,3.0115086 21.534029,2.4777392 21.189336,2.1379735 21.146022,1.9112901 21.087017,1.4682979 c 0.152376,0.1255317 0.365313,0.2080092 0.555037,0.2240897 0.432617,0.03657 0.837743,-0.316812 1.186975,-0.5214496 0.287763,-0.168586 0.695094,-0.47009561 1.072986,-0.62247151 0.970926,-0.39137895 2.163607,-0.37996697 3.18861,-0.27518426 0.821533,0.0840336 1.886608,0.44947636 2.607119,0.85719517 0.724012,0.4095344 1.421569,1.1000887 1.932514,1.7510902 0.642832,0.8190688 0.994268,1.5218131 1.227176,2.5433149 0.29762,1.3045965 0.379968,3.2640851 0.02023,4.5505263 C 32.59418,10.989 31.652692,12.545957 30.85113,13.309263 c -0.790409,0.752801 -1.703108,1.116169 -2.74108,1.314971 0.04072,0.209435 0.04733,0.404865 0.101152,0.576564 0.07626,0.243802 0.222145,0.515614 0.521969,0.429635 0.119437,-0.03423 0.1835,-0.06393 0.341062,0.07392 0.157564,0.137852 0.07548,0.670454 -0.367776,0.909457 -0.224739,0.121252 -0.461926,0.147578 -0.821923,0.15484 -0.359995,0.0071 -0.921776,0.0087 -1.312636,-0.05965 -0.390731,-0.06847 -0.624287,-0.37867 -1.057035,-0.427171 -0.668897,-0.07482 -1.18101,-0.558019 -1.717373,-0.903621 -0.22383,-0.144335 -0.299305,-0.145762 -0.428208,-0.218643 0.06964,0.213327 0.162621,0.434822 0.208788,0.639849 0.04669,0.205156 0.02672,0.39514 0.05136,0.559187 0.02464,0.164047 0.07003,0.291524 0.09661,0.424577 0.107117,0.09597 0.141354,0.241598 0.321352,0.287375 0.180257,0.04578 0.462185,-0.02542 0.646463,-0.05018 0.184147,-0.0249 0.307734,-0.125272 0.452329,-0.09778 0.144595,0.02749 0.281668,0.130978 0.40292,0.22811 0.121252,0.097 0.225387,0.111266 0.323556,0.353382 0.09804,0.242245 0.188038,0.738147 0.201525,1.069614 0.01336,0.331465 -0.02373,0.63077 -0.121901,0.893765 -0.0983,0.262994 -0.184667,0.379708 -0.450643,0.640238 -0.266107,0.26053 -0.699243,0.642831 -1.131472,0.909068 0.07949,0.11801 0.114898,0.225905 0.239003,0.353771 0.124105,0.127996 0.38282,0.271294 0.497977,0.406292 0.115028,0.134869 0.173385,0.231741 0.175071,0.38321 0.0019,0.151338 -0.0056,0.347935 -0.128385,0.513019 -0.306048,0.410832 -0.668119,0.484361 -1.108259,0.677587 0.07405,0.462185 0.13448,0.792354 0.02749,1.254021 -0.0437,0.188038 -0.140704,0.614301 -0.372576,0.723623 -0.232129,0.109451 -0.679531,0.05654 -0.962626,0.101411 -0.283225,0.04513 -0.441695,0.0878 -0.662413,0.131626 -0.134091,0.194004 -0.33393,0.407979 -0.402403,0.581752 -0.06847,0.173773 -0.04785,0.23615 0.0098,0.413684 0.05758,0.177534 0.253397,0.435989 0.308901,0.64387 0.0555,0.207879 0.06627,0.431579 0.01452,0.639978 -0.05188,0.208528 -0.140705,0.359736 -0.318239,0.544792 -0.177664,0.185186 -0.527025,0.330559 -0.701058,0.48047 -0.174163,0.150172 -0.347547,0.168198 -0.300084,0.416408 0.06536,0.341063 0.563726,0.894154 0.924111,1.025781 0.216049,0.0791 0.506148,0.05407 0.768494,-0.05667 -0.01777,0.291393 -0.269868,0.487602 -0.434564,0.681087 0.446105,-0.127477 0.878464,-0.371668 1.177639,-0.695223 -0.09272,0.28102 -0.411999,0.732182 -0.889486,1.128489 -0.477488,0.396177 -0.474635,0.315126 -0.711952,0.472689 0.433136,0.08702 0.835798,0.06354 1.171284,0.0032 -0.183889,0.101411 -0.485268,0.243931 -0.884687,0.285947 -0.39929,0.04189 -0.645426,0.01219 -1.005293,-0.07521 -0.359995,-0.08741 -0.688479,-0.414592 -1.124598,-0.640108 0.04253,0.161842 0.07262,0.356365 0.256121,0.522616 0.18337,0.166512 0.460888,0.251064 0.755785,0.395011 -0.375429,-0.04267 -0.769919,-0.0555 -1.138864,-0.136814 -0.273239,-0.0603 -0.456738,-0.124235 -0.656577,-0.223182 -0.19971,-0.09895 -0.354031,-0.243413 -0.530917,-0.365054 0.08481,0.162102 0.10997,0.352475 0.254176,0.486046 0.144335,0.133573 0.378929,0.183241 0.568653,0.274925 -0.197894,-0.0043 -0.388266,0.03864 -0.593422,-0.01297 -0.205157,-0.05148 -0.397733,-0.132664 -0.61106,-0.289838 -0.213455,-0.157174 -0.433525,-0.350789 -0.615598,-0.548553 -0.181943,-0.198023 -0.406681,-0.454534 -0.474635,-0.636996 -0.06809,-0.182462 0.04085,-0.310198 0.06133,-0.465038 -0.125791,0.08247 -0.280242,0.127996 -0.376854,0.247822 -0.09661,0.119826 -0.182203,0.229277 -0.139408,0.438324 0.0428,0.208787 0.235631,0.464259 0.371927,0.696519 -0.406811,-0.332633 -0.634013,-0.460629 -0.730755,-0.861993 -0.09078,-0.375688 0.143816,-0.71675 0.321998,-1.000883 0.08845,-0.141093 0.220848,-0.272331 0.303585,-0.408497 -0.183759,-0.179868 -0.393713,-0.334448 -0.551146,-0.539475 -0.157564,-0.204897 -0.223701,-0.482415 -0.384377,-0.678624 -0.160804,-0.196208 -0.377113,-0.320313 -0.565412,-0.48047 0.165474,0.355717 0.437546,0.791965 0.496682,1.06728 0.05901,0.275183 -0.06614,0.443511 -0.163918,0.592255 -0.09778,0.148485 -0.255473,0.181554 -0.404996,0.272979 -0.149522,0.0913 -0.382172,0.01932 -0.471393,0.15484 -0.08896,0.135518 -0.112822,0.339507 -0.02776,0.473727 l 0.349362,0.551406 c -0.128774,-0.06497 -0.35053,-0.253916 -0.450384,-0.388007 -0.09999,-0.133961 -0.253398,-0.257807 -0.274406,-0.439102 -0.02101,-0.181165 -0.03113,-0.338468 0.08624,-0.499793 0.117362,-0.161324 0.438843,-0.215271 0.582659,-0.339376 0.143947,-0.124105 0.224609,-0.204897 0.216439,-0.365183 -0.0082,-0.160416 -0.164826,-0.275055 -0.299565,-0.376076 -0.41109,-0.308384 -0.938375,-0.592645 -1.287478,-0.964183 -0.197116,-0.209955 -0.291784,-0.379448 -0.331466,-0.524303 -0.03955,-0.144855 0.0023,-0.257807 0.100244,-0.435989 0.09804,-0.178183 0.434044,-0.416019 0.474893,-0.609503 0.04085,-0.193615 -0.128903,-0.235113 -0.282057,-0.303456 -0.153154,-0.06821 -0.44403,0.03502 -0.58616,-0.08365 -0.142002,-0.118788 0.04176,-0.368295 -0.1184,-0.505109 -0.160026,-0.136814 -0.526377,-0.06043 -0.715453,-0.20749 -0.189075,-0.147319 -0.267144,-0.33004 -0.332374,-0.543625 -0.06523,-0.213586 -0.07262,-0.447402 -0.02853,-0.602112 0.04422,-0.15471 0.176886,-0.181814 0.257029,-0.261957 0.08001,-0.08015 0.149394,-0.14654 0.04279,-0.266107 -0.106728,-0.119436 -0.456219,0.0067 -0.657096,-0.14667 -0.201007,-0.153413 -0.07794,-0.52093 -0.22007,-0.675899 -0.142001,-0.15484 -0.396826,-0.09428 -0.531435,-0.143687 -0.13448,-0.04954 -0.187261,0.125142 -0.269738,-0.15108 -0.08247,-0.276221 -0.08481,-1.099311 -0.195819,-1.406526 -0.110878,-0.307345 -0.3288726,-0.02075 -0.4301536,-0.326149 -0.101152,-0.30527 -0.0052,-0.793521 -0.05084,-1.25467 L 9.4726068,17.86329 c -0.7205111,0.484102 -1.1961831,0.636088 -1.970382,0.772902 -0.064582,1.894129 -0.2425046,3.009521 0.4004567,5.11101 0.6428314,2.101361 1.9439259,3.339949 3.6991665,5.11905 C 9.2857353,27.131113 8.1799406,25.720308 7.4878301,23.913195 6.7957196,22.105693 6.9286432,20.594124 6.9981525,18.853668 Z m 12.3075585,-0.76136 c 0.178183,0.0079 0.394751,0.05317 0.519764,0.134349 0.125272,0.08131 0.258066,0.147708 0.371667,0.263254 0.283484,0.288671 0.496032,0.636737 0.590051,1.036804 0.05978,0.254954 0.06873,0.582011 0.09052,0.881446 -0.08572,-0.276741 -0.143428,-0.565412 -0.265588,-0.813233 -0.192706,-0.39099 -0.520023,-0.772513 -0.926575,-0.948232 -0.13422,-0.0581 -0.223701,-0.04733 -0.297489,-0.03709 0.03307,0.05537 0.08832,0.10193 0.09078,0.183111 0.0023,0.08118 -0.01582,0.24004 -0.153414,0.306826 -0.222014,0.107636 -0.468798,0.0319 -0.640237,-0.119566 -0.172866,-0.152765 -0.231741,-0.41109 -0.141353,-0.633235 0.107894,-0.264551 0.518726,-0.265329 0.761879,-0.254435 z m -2.234284,-0.376595 c 0.02244,-0.454923 0.186612,-0.838651 0.594331,-1.061704 0.210733,-0.115417 0.535585,-0.26455 0.834112,-0.299565 0.286595,-0.03372 0.984024,-0.0091 1.403543,0.182462 0.322129,0.14706 0.541551,0.375948 0.824516,0.543237 0.282705,0.167289 0.483971,0.279464 0.753191,0.467113 0.413424,0.288152 0.655669,0.605353 0.942266,0.795466 0.137851,0.0913 0.331725,0.07781 0.514705,0.133573 -0.14226,0.04228 -0.328224,0.08896 -0.481767,0.03981 -0.19128,-0.06121 -0.458942,-0.236021 -0.607428,-0.361552 -0.262346,-0.221626 -0.398382,-0.329781 -0.684718,-0.49694 -0.170921,-0.0996 -0.45246,-0.216957 -0.640239,-0.339507 -0.188037,-0.122419 -0.514316,-0.391249 -0.694833,-0.482286 -0.229666,-0.115546 -0.643092,-0.179868 -0.898693,-0.172346 -0.352086,0.01037 -0.861864,0.06834 -1.134454,0.315645 -0.270647,0.245747 -0.373484,0.461926 -0.312533,0.781202 0.102059,-0.117492 0.169882,-0.265069 0.272071,-0.352346 0.211641,-0.180776 0.454405,-0.189464 0.717788,-0.155228 0.295803,0.03852 0.444808,0.209435 0.542587,0.490196 -0.06588,-0.04824 -0.186741,-0.154321 -0.282187,-0.18726 -0.224089,-0.07729 -0.393453,-0.05343 -0.603278,0.05914 -0.247692,0.132924 -0.180257,0.329521 -0.216049,0.548293 -0.01634,0.100893 -0.05447,0.182203 -0.0817,0.273369 -0.09312,-0.02464 -0.17922,-0.06354 -0.249767,-0.133312 0.003,0.102188 -0.01193,0.19154 0.0091,0.306437 0.02075,0.114898 0.07678,0.251582 0.115157,0.377114 -0.172477,-0.172477 -0.349102,-0.333282 -0.460499,-0.555944 -0.111527,-0.223053 -0.187131,-0.470356 -0.17507,-0.715065 z m 0.298527,-3.31129 c 0.127088,-0.188687 0.164436,-0.478136 0.242894,-0.713508 -0.03138,0.298138 0.02892,0.625973 -0.116713,0.841893 -0.145503,0.215919 -0.401106,0.178053 -0.612876,0.240819 0.164696,-0.125662 0.359478,-0.180388 0.486695,-0.369204 z m -3.044274,4.420455 c 0.163398,-0.132274 0.603926,-0.02658 0.933447,-0.003 l -0.710525,0.181944 c -0.02205,0.08066 -0.01206,0.172995 -0.06613,0.241726 -0.05407,0.06873 -0.156914,0.09415 -0.235372,0.141223 0.0078,-0.21177 -0.08468,-0.429894 0.07858,-0.561911 z m 2.322077,-9.1804162 c 0.196727,0.105949 0.446494,0.246005 0.620138,0.250285 0.173773,0.0044 0.219162,-0.113601 0.32148,-0.181555 0.160806,0.5241732 0.345342,1.1003492 0.6191,1.5760202 0.114639,0.199321 0.187779,0.106599 0.274925,0.306957 0.08714,0.200229 0.125791,0.607688 0.208528,0.863679 0.08274,0.255732 0.190632,0.44403 0.285948,0.666174 -0.241986,-0.343007 -0.554778,-0.780294 -0.689647,-1.065723 -0.134869,-0.285299 -0.0485,-0.310198 -0.157692,-0.581881 -0.109062,-0.271812 -0.329651,-0.695483 -0.494606,-1.043159 -0.11801,0.01556 -0.264162,0.03709 -0.354031,0.0095 -0.08961,-0.02775 -0.07171,-0.123197 -0.152894,-0.184796 -0.08118,-0.06173 -0.217606,-0.03787 -0.331336,-0.136295 -0.113731,-0.09856 -0.139538,-0.3004732 -0.149913,-0.4791742 z m -1.059109,2.5871472 c 0.185055,-0.01634 0.414981,0.03332 0.588366,0.02334 0.173384,-0.0098 0.2971,-0.05473 0.445715,-0.08209 -0.02762,-0.261179 -0.0015,-0.741 -0.242504,-0.915293 -0.155618,-0.112563 -0.795208,-0.02775 -0.966128,0.0091 -0.384247,0.08286 -0.831907,0.312273 -1.203704,0.455701 0.356364,-0.248989 0.663969,-0.479563 1.091399,-0.607947 0.25677,-0.07729 0.856288,-0.177664 1.121357,-0.10608 0.120992,0.03268 0.145503,0.08274 0.218903,0.185445 0.25236,0.352215 0.251582,0.656708 0.317071,1.067019 0.06433,0.100374 0.132923,0.16729 0.185055,0.270647 0.052,0.103485 0.08157,0.266235 0.09597,0.399289 -0.06588,-0.09583 -0.02555,-0.21592 -0.208398,-0.287115 -0.183111,-0.07132 -0.463223,-0.0048 -0.709877,0.02101 0.179738,0.129681 0.269089,0.254565 0.275962,0.528842 0.008,0.321869 -0.26455,0.55374 -0.549072,0.575786 -0.39514,0.03061 -0.598869,-0.05628 -0.758637,-0.393973 -0.07003,-0.147837 -0.01932,-0.32576 -0.02516,-0.469966 -0.474635,0.03294 -0.466853,0.0175 -0.813882,0.306826 0.188557,0.276222 0.307346,0.435212 0.618971,0.600426 0.17481,0.09285 0.372705,0.182981 0.589273,0.21981 0.216568,0.03696 0.572025,0.07262 0.799616,0.03761 0.227592,-0.03502 0.356624,-0.09985 0.525211,-0.255991 0.168845,-0.156007 0.184277,-0.379448 0.250285,-0.556205 -0.01504,0.170143 -0.03463,0.386581 -0.09765,0.509908 -0.191929,0.37491 -0.524043,0.486047 -0.92061,0.487344 -0.380486,0.0013 -0.85123,-0.08663 -1.205261,-0.233427 -0.283095,-0.117232 -0.752282,-0.449476 -0.863679,-0.738147 -0.07612,-0.197117 -0.01582,-0.439232 -0.02387,-0.658783 0.392028,-0.26066 0.488899,-0.196597 0.95277,-0.27285 0.193875,-0.0319 0.327317,-0.104004 0.512502,-0.120344 z m -2.283044,-1.765356 c 0.01102,-0.156137 0.02827,-0.152764 0.0424,-0.229277 -0.357014,-0.09544 -0.500182,0.136166 -0.709618,0.566449 -0.07833,0.160935 -7.78e-4,0.25677 -0.08481,0.36272 -0.0839,0.105949 -0.219162,0.09116 -0.355587,0.192836 -0.136166,0.101801 -0.271424,0.296582 -0.398771,0.402013 -0.261568,0.21605 -0.615209,0.348065 -0.918535,0.493568 0.207231,-0.152894 0.609244,-0.384636 0.739186,-0.60691 0.06912,-0.117621 0.05887,-0.339766 0.166252,-0.445456 0.107376,-0.105949 0.144984,-0.179219 0.283612,-0.206193 0.13863,-0.0271 0.08286,-0.18778 0.127607,-0.315387 0.04461,-0.127735 0.133703,-0.218512 0.228499,-0.345989 0.09467,-0.127607 0.214364,-0.319276 0.401365,-0.3887862 0.18713,-0.06964 0.478914,0.0057 0.620656,-0.03436 0.141482,-0.04021 0.06017,-0.143038 0.16314,-0.204896 0.102966,-0.06186 0.303195,-0.0345 0.440787,-0.100633 0.243801,-0.1172324 0.360514,-0.312922 0.507055,-0.5226171 0.02139,0.4511627 0.01621,0.7758851 -0.145892,1.2002033 -0.182592,0.477617 -0.367517,0.758896 -0.885725,1.052625 -0.178442,0.101152 -0.355976,0.136166 -0.503943,0.189335 0.08624,-0.117621 0.209695,-0.168715 0.258845,-0.352993 0.04902,-0.184408 0.01245,-0.549979 0.02334,-0.706246 z m 8.363813,2.19927 c -0.246395,0.01595 -0.304752,-0.01647 -0.501868,0.122549 0.106987,0.166252 0.213716,0.332504 0.320314,0.498755 -0.0094,-0.328094 0.02269,-0.393972 0.181554,-0.621304 z m -0.645296,-0.238614 c 0.341062,-0.145244 0.638293,-0.262735 1.009442,-0.285948 0.148744,-0.0094 0.379707,0.01361 0.530008,0.02049 0.127996,-0.188427 0.291005,-0.337042 0.350789,-0.552054 0.03969,-0.142649 0.0201,-0.804674 -0.04993,-0.976502 C 22.660312,10.132714 22.461899,10.111705 22.181009,9.8251088 21.977281,9.6172288 21.969111,9.3008052 21.908161,8.9462557 21.885855,8.8160555 21.821922,8.6512302 21.791966,8.5167504 21.424708,8.4548924 21.029827,8.4345323 20.607455,8.4556704 20.812351,8.2592028 21.010375,8.0795939 21.069121,7.784698 21.127737,7.4898021 21.080014,7.1272124 20.912336,6.862662 20.744658,6.5981116 20.476865,6.3677972 20.230989,6.1522664 19.985112,5.9368653 19.632638,5.7589422 19.3996,5.5827049 c 0.303067,-0.1085434 0.612486,-0.267922 0.909328,-0.3255007 0.773421,-0.1500416 1.439724,0.079365 2.185653,0.5303977 0.433655,0.2622161 0.792354,0.511464 1.245721,0.9860985 0.453237,0.4746346 1.015407,1.3450573 1.454249,1.8613196 0.438842,0.5161327 0.793132,0.9246298 1.175952,1.2324938 0.38295,0.3078642 0.729459,0.3955282 1.094124,0.5934232 l 0.568264,0.603408 0.459981,-0.569043 0.740093,0.08365 0.153024,-0.8307402 0.679142,-0.186094 L 29.954383,8.4423132 30.442763,8.0956743 30.075765,7.3988953 30.4486,6.6376645 29.962293,5.7673715 30.149814,4.9293692 29.586996,4.4495475 29.513466,3.5591537 28.728244,3.2595893 28.413247,2.4850014 27.530375,2.4750159 27.097239,1.8998781 26.503037,1.9415059 25.840365,1.869403 25.465845,1.5927921 24.92209,1.9538257 24.264086,1.6106883 22.956117,2.107239 l 0.852656,-0.7415192 0.883392,-0.1410936 0.676678,-0.1724765 0.913996,0.3000831 0.804414,-0.2036 0.775626,0.4584244 0.820884,-0.045389 0.40318,0.7234935 0.817254,0.094279 0.442213,0.8044147 0.513928,0.280631 0.136425,1.0304497 0.457776,0.4341738 -0.201265,0.901676 0.539346,0.6827734 -0.505759,0.7315337 0.540772,0.4573869 -0.691202,0.6126158 0.700021,0.7290697 -0.845524,0.2725907 0.550757,0.7819799 -0.690554,0.119177 0.452849,0.859789 -0.77822,-0.01037 0.392027,0.643998 -0.853693,-0.102708 0.204249,0.926575 -0.645166,-0.567616 -0.220978,1.123042 -0.445197,-0.806359 -0.241207,1.00568 -0.549591,-0.741649 0.01504,1.05457 -0.607428,-0.948101 c 0.128125,0.537919 0.102448,1.126933 0.45583,1.634247 1.094772,-0.148227 1.810355,-0.424059 2.649136,-1.231197 0.763823,-0.735036 1.677042,-2.267742 1.924215,-3.2398352 0.282187,-1.1092951 0.290876,-3.1494455 0.01297,-4.2788423 C 32.348565,4.451752 32.000888,3.9323773 31.379843,3.0450961 30.786291,2.4145842 30.202464,1.7485398 29.449014,1.2989337 28.34309,0.63898419 26.925022,0.46119082 25.664517,0.4781791 24.966701,0.4877761 24.499068,0.62173659 24.081883,0.77359369 23.352165,1.0389222 22.768598,1.617691 22.02682,1.9037686 c -0.241987,0.093112 -0.43586,0.095964 -0.626362,-0.00571 0.186481,0.3732234 0.389433,0.5407721 0.85473,0.6765486 0.336524,0.098169 1.139642,0.036051 1.692475,-0.014913 0.593553,-0.054855 0.903102,-0.2313519 1.710758,-0.2201993 0.788854,0.010764 1.413919,0.3104576 1.75576,0.5057581 0.705078,0.4033097 1.210837,0.8507111 1.650197,1.5591615 0.241209,0.3890447 0.410313,0.8281464 0.529361,1.2760666 0.119047,0.4480498 0.171179,0.9497878 0.17883,1.3883709 0.0076,0.4385831 -0.02594,0.8300916 -0.133182,1.2247127 C 29.388453,9.2175483 28.834972,10.15787 27.697924,10.012626 27.002052,9.9236658 25.953058,8.6176426 25.601751,8.1384693 24.892912,7.1714338 24.163582,6.1013015 23.272799,5.295979 22.729823,4.8051343 21.986229,4.4673138 21.255992,4.4005278 19.886165,4.2751257 19.479873,4.5353966 18.448775,5.3853296 c 0.209825,0.066786 0.414592,0.1037453 0.629474,0.2006174 0.477229,0.215012 0.913478,0.49279 1.294223,0.8492846 0.39877,0.3734829 0.577601,0.6098923 0.591867,1.1448288 0.0094,0.3551979 -0.282836,0.6399786 -0.550759,0.8960997 -0.163917,0.1569147 -0.380745,0.3006019 -0.513538,0.4223729 -0.175849,0.1615832 -0.393714,0.3383391 -0.172736,0.595757 0.08313,0.096742 0.227461,0.1697528 0.349232,0.2600118 0.193226,0.143428 0.104653,0.6762892 -0.149782,0.8176422 -0.32576,0.180777 -0.714804,0.160546 -0.983376,-0.08131 0.338988,-0.0507 0.55426,-0.09571 0.545441,-0.372964 C 19.483621,9.9568648 19.279385,9.8232928 19.078898,9.7318678 18.595186,9.511409 18.229873,9.5438298 17.748495,9.1975796 17.262188,8.8475691 17.251555,8.6558997 17.120187,8.1064389 c -0.234464,0.024639 -0.450383,0.029827 -0.763824,0.1337017 -0.31344,0.1037453 -0.65982,0.3507886 -0.944471,0.4118686 -0.71675,0.1543211 -0.859529,0.1085436 -1.251816,0.00701 -0.690554,-0.1787012 -1.589896,0.1273474 -2.483013,0.4130358 -0.148615,0.047464 -0.7493,0.00155 -1.153647,0.1435575 -0.6246766,0.2191618 -1.5009342,0.7498183 -2.0070814,1.1760815 -0.7669368,0.645815 -1.7748219,2.578978 -2.3442537,4.79783 -0.059783,0.674473 0.1320159,1.129007 -0.2929506,1.458398 -0.4248368,0.329392 -0.4130358,1.173489 -0.5571121,1.410158 -0.1440762,0.236669 -0.3108466,0.132145 -0.621045,0.46452 -0.3100686,0.332373 -0.4680208,0.276869 -0.4601102,0.905436 0.267144,-0.175719 0.6568372,-0.379967 0.9989371,-0.392287 0.3030659,-0.01102 0.3063078,0.387877 1.0840083,-0.380875 0.4158888,-0.41135 1.2149865,-0.424058 1.7693753,-0.605353 0.5543886,-0.181424 1.5535847,-0.555296 2.5542073,-1.67393 1.000624,-1.118763 1.479537,-2.296531 1.673541,-3.99912 0.03086,0.301769 0.08455,0.642313 -0.04474,1.474998 -0.129292,0.832815 -0.407848,1.768078 0.178961,2.888398 l 0.365702,0.698076 c -0.217606,-0.29723 -0.642832,-0.781851 -0.770957,-1.127193 l -0.295285,-0.796763 c -0.660728,1.037453 -0.812585,1.222897 -1.730341,1.966102 -0.03657,0.461148 -0.04538,0.942007 0.105171,1.383184 0.15069,0.441046 -0.08948,0.949657 0.02515,1.240144 0.114639,0.290487 0.379838,0.125144 0.466335,0.41939 0.08663,0.294119 -0.04513,0.875611 0.08909,1.162336 0.13435,0.286597 0.463742,0.112824 0.62338,0.205287 0.159768,0.09272 0.211899,0.21968 0.29736,0.341451 0.08533,0.121901 -0.03346,0.409794 0.140315,0.503165 0.173514,0.0935 0.444419,0.01427 0.625065,0.104004 0.180647,0.08974 0.20814,0.30553 0.164825,0.498755 -0.04331,0.193356 -0.236409,0.282058 -0.32122,0.478525 -0.08468,0.196598 -0.07521,0.333412 0.02658,0.513929 0.101801,0.180516 0.327317,0.279982 0.552055,0.371148 0.224608,0.09103 0.540383,0.03994 0.772253,0.165993 0.232,0.125791 0.440399,0.376854 0.562818,0.559316 0.122419,0.182462 0.156526,0.311236 0.150171,0.503035 -0.0063,0.191669 -0.08404,0.412647 -0.186481,0.597832 -0.102449,0.185315 -0.328225,0.410831 0.02438,0.764603 0.352734,0.353642 0.339767,0.201135 0.54181,0.430672 -0.02205,-0.396955 -0.186093,-0.720382 -0.06614,-1.019298 0.119955,-0.298786 0.480081,-0.350658 0.669935,-0.485008 0.189853,-0.134609 0.299175,-0.319276 0.448828,-0.478784 -0.0022,0.205285 0.01984,0.426004 -0.0035,0.580584 -0.04759,0.314348 -0.140315,0.593422 0.328095,0.643869 0.210992,0.02257 0.41135,-0.11412 0.633365,-0.196338 -0.116325,0.208268 -0.318628,0.375817 -0.348973,0.625065 -0.03047,0.249248 0.0061,0.523006 0.178701,0.770309 0.172476,0.247172 0.470743,0.430802 0.688998,0.576045 0.218383,0.145373 0.335356,0.156915 0.503165,0.235631 0.0082,0.245098 -0.04007,0.504462 -0.01206,0.735165 0.02788,0.230834 0.100633,0.434952 0.234075,0.625714 0.133573,0.190891 0.347547,0.300342 0.549331,0.441436 -0.110618,-0.257548 -0.334837,-0.501868 -0.331854,-0.772383 0.003,-0.270645 0.08429,-0.462445 0.348194,-0.702615 0.263902,-0.24017 0.881835,-0.448439 1.173359,-0.681996 0.291395,-0.233556 0.385413,-0.376595 0.490067,-0.603408 0.104652,-0.226683 0.07548,-0.591996 0.0948,-0.795856 0.09597,0.285559 0.10971,0.374261 0.140834,0.673047 0.03125,0.298787 -0.174162,0.717788 -0.261049,0.938895 0.360515,-0.174032 0.589273,-0.452329 0.70469,-0.724271 0.07729,0.04578 0.03839,0.171569 0.06679,0.413684 0.128385,-0.127866 0.274535,-0.226165 0.403828,-0.346899 0.129422,-0.120603 0.271294,-0.226553 0.335486,-0.39475 0.06406,-0.168327 0.03787,-0.347287 -0.0099,-0.542847 -0.04785,-0.19556 -0.266365,-0.422243 -0.383986,-0.636088 -0.117621,-0.213845 0.02075,-0.4238 0.01284,-0.681476 -0.235502,-0.04033 -0.435341,-0.160288 -0.705987,-0.121383 -0.270774,0.03891 -0.580843,0.342748 -0.857454,0.34625 -0.27674,0.0035 -0.431969,-0.255602 -0.658782,-0.326797 -0.226943,-0.07132 -0.45648,-0.06354 -0.68446,-0.09519 0.288931,-0.27674 1.410158,-0.408497 2.176965,-0.53364 0.674862,-0.110099 1.344539,-0.173773 2.028219,-0.18324 0.305401,-0.0044 0.697817,0.09649 0.909846,0.03553 0.21216,-0.06083 0.166901,-0.205286 0.229796,-0.362849 0.176107,-0.440269 0.08935,-0.832296 -0.0064,-1.275677 -0.613784,-0.07198 -1.253373,-0.160027 -1.871824,-0.112564 -0.604576,0.04656 -1.320548,0.333931 -1.944187,0.353382 -0.542198,0.01686 -1.345187,-0.103745 -1.810744,-0.387748 -0.568912,-0.346639 -1.009181,-1.09153 -1.165447,-1.330532 -0.254436,-0.389563 -0.575528,-1.153777 -0.770827,-1.50314 -0.195172,-0.349491 -0.238226,-0.447142 -0.400717,-0.593033 -0.162491,-0.145762 -0.385025,-0.157045 -0.577471,-0.235631 0.221755,0.02269 0.464129,-0.04759 0.665655,0.06795 0.302806,0.173774 0.641793,0.893896 0.830092,1.207206 0.199709,-0.669157 0.153024,-0.93241 0.730755,-1.309654 -0.465556,0.521839 -0.477228,0.916978 -0.59057,1.53128 0.3871,0.63544 0.925278,1.647474 1.629449,1.928365 0.254436,0.101411 0.691203,0.165084 0.966257,0.199061 0.855899,0.10595 1.681322,-0.165214 2.521918,-0.372835 0.614431,-0.151727 1.23794,-0.09052 1.985165,-0.04668 0.253657,0.01491 0.851878,-0.137722 0.975724,-0.394233 0.06692,-0.1385 0.06199,-0.304881 -0.03411,-0.452459 -0.09622,-0.147448 -0.352345,-0.218902 -0.489678,-0.351696 -0.137332,-0.132794 -0.216308,-0.290357 -0.324463,-0.4356 -0.570598,0.10945 -1.040176,0.151597 -1.463845,0.163139 0.303844,-0.125273 0.595368,-0.196598 0.911661,-0.320313 0.316294,-0.123717 0.675381,-0.326798 0.930595,-0.495255 0.255213,-0.168586 0.418223,-0.266235 0.60302,-0.462315 0.184406,-0.196207 0.421205,-0.398381 0.55737,-0.638032 0.136166,-0.239912 0.157175,-0.508222 0.164826,-0.804934 0.0076,-0.296841 -0.0052,-0.713249 -0.119696,-0.952252 -0.114249,-0.239003 -0.334838,-0.311625 -0.511983,-0.368166 -0.177145,-0.05654 -0.298527,0.0865 -0.482804,0.10582 -0.184408,0.01932 -0.356625,0.135517 -0.62312,0.01012 -0.266626,-0.125273 -0.582659,-0.380486 -0.852138,-0.759286 -0.269478,-0.378671 -0.462185,-0.997899 -0.73685,-1.47422 -0.473468,-0.821015 -1.063649,-1.587951 -1.627893,-2.348792 -0.04643,-0.18765 -0.116324,-0.446883 -0.139538,-0.701319 -0.04046,-0.44351 -0.04798,-0.904139 0.08948,-1.336498 0.105562,-0.331206 0.258975,-0.681088 0.605744,-0.8168642 0.138758,-0.05446 0.314218,-0.07599 0.438323,-0.02995 0.124105,0.0459 0.245746,0.1859642 0.197116,0.3476772 -0.05369,0.177923 -0.176886,0.182851 -0.26066,0.27259 -0.142131,0.152376 -0.199062,0.264162 -0.25275,0.454145 0.153673,-0.0026 0.361294,-0.01427 0.487474,0.01893 0.164695,0.04331 0.31785,0.152505 0.401493,0.385803 -0.196467,-0.174292 -0.294117,-0.254176 -0.539345,-0.260401 -0.112304,-0.0028 -0.248859,0.03735 -0.373223,0.05616 -0.04643,0.151079 -0.07366,0.336394 -0.139279,0.453367 -0.06562,0.116843 -0.193224,0.08883 -0.241207,0.225516 -0.04799,0.136295 -0.05084,0.35844 -0.02658,0.53779 z m 1.716595,-0.204767 c 0.07521,0.02983 0.103875,0.03631 0.199191,0.108803 0.09531,0.07249 0.226943,0.144854 0.302288,0.318109 0.0756,0.173384 0.0721,0.441435 0.05603,0.550627 -0.06627,-0.01945 -0.156655,-0.0063 -0.225387,-0.0651 -0.06861,-0.05874 -0.109451,-0.191929 -0.197504,-0.248859 -0.08805,-0.0568 -0.161454,-0.04435 -0.258716,-0.0568 0.04993,0.14226 0.07431,0.284521 0.05109,0.413554 -0.05058,0.281409 -0.21592,0.424058 -0.483972,0.457776 -0.116973,0.01466 -0.302806,-0.02387 -0.404606,-0.04241 0.0472,0.105432 0.127088,0.197765 0.174422,0.303196 0.226553,-0.03281 0.39449,-0.02815 0.516262,-0.08507 0.1219,-0.05706 0.25249,-0.184666 0.408886,-0.238743 0.156395,-0.05407 0.295803,-0.05317 0.466853,-0.07988 -0.134739,0.116065 -0.223052,0.23226 -0.357791,0.348454 l 0.296192,0.860697 c 0.209306,0.130978 0.405644,0.199969 0.669287,0.361552 0.263902,0.161713 0.580195,0.451033 0.923722,0.608725 0.343656,0.157823 0.548164,0.243673 0.907252,0.311236 0.358829,0.06782 0.644518,0.35857 0.997641,0.405903 0.353252,0.0472 1.013072,0.05667 1.285143,0.03009 0.309161,-0.03009 0.710656,-0.189595 0.746707,-0.528453 -0.259104,0.06393 -0.654892,0.0064 -0.854731,-0.481119 -0.0887,-0.216568 -0.04526,-0.61469 -0.181036,-0.870811 -0.135646,-0.255992 -0.324852,-0.33821 -0.551016,-0.653725 -0.226035,-0.315515 -0.595888,-0.813103 -0.803508,-1.235866 -0.20749,-0.422761 -0.256251,-0.901545 -0.431839,-1.280216 C 25.815987,11.055272 25.551307,10.749224 25.346021,10.45744 24.897971,9.8194068 24.536678,9.383417 23.79853,9.0616771 23.443462,8.9068374 23.039245,8.8655986 22.659667,8.7675594 c -0.15445,0.06925 -0.36635,0.1456324 -0.403958,0.3262788 -0.03761,0.1806464 0.03463,0.4474016 0.165733,0.5831786 0.219551,0.226683 0.544663,0.4717812 0.672529,0.8322962 0.08209,0.231222 0.105949,1.006588 0.03475,1.216931 -0.07379,0.218514 -0.245357,0.35053 -0.388007,0.496032 z m 0.07132,1.835124 c -0.06847,0.05926 -0.120734,0.119955 -0.231092,0.169104 -0.110229,0.04915 -0.260661,0.06186 -0.406941,0.0983 0.205156,0.319276 0.420557,0.641923 0.617024,0.977539 0.196598,0.335486 0.367,0.702875 0.554519,1.054312 -0.0088,-0.201266 0.003,-0.416019 -0.02633,-0.604316 -0.02918,-0.188038 -0.114509,-0.352734 -0.199062,-0.63531 -0.08442,-0.282447 -0.188297,-0.666823 -0.307993,-1.059499 z M 17.294609,7.0385103 c -0.02892,0.313959 0.02412,0.8049334 0.08922,1.1122788 0.07781,0.3680362 0.153024,0.5589275 0.451551,0.780683 0.546997,0.4059031 0.8961,0.3375611 1.316787,0.5729328 0.200228,0.1120459 0.453885,0.2998239 0.527804,0.4983671 0.07418,0.198412 -0.04876,0.414073 -0.200618,0.498755 0.265589,0.03955 0.563337,-0.259752 0.439103,-0.5670972 -0.06121,-0.151339 -0.352475,-0.218643 -0.441825,-0.371278 C 19.387537,9.4106452 19.387664,9.2534714 19.429678,9.098502 19.505544,8.8191678 20.058245,8.5655107 20.253545,8.3445333 20.554026,8.0047676 20.669442,7.7206352 20.499171,7.2829599 20.260167,6.6682694 19.336835,6.1749607 18.784132,5.933753 18.530994,5.8232642 18.389121,5.8154834 18.191746,5.7563486 c 0.404088,0.2367985 0.830222,0.4253556 1.0346,0.9548453 0.17079,0.4422142 0.02296,0.6088551 0.02853,0.9938796 0.0027,0.1784418 0.237836,0.2676628 0.3421,0.3804857 0.09091,0.098039 0.08352,0.1707906 0.01102,0.3060485 -0.008,-0.1219006 -0.06017,-0.2130668 -0.15393,-0.2794638 C 19.299357,8.002563 19.132715,8.0261651 19.050238,7.8011676 18.925095,7.4593269 19.173306,7.1355121 18.894232,6.7516546 18.685574,6.4644099 18.408055,6.1429293 18.033664,6.1345001 c -0.177144,-0.00389 -0.310457,0.022823 -0.499663,0.078716 l -0.25236,-0.3035846 -0.0059,-0.00389 C 16.762525,5.4372023 16.411348,5.0511402 15.691356,4.7291409 14.971234,4.4072712 14.616426,4.358511 13.790873,4.3769258 12.96532,4.3950812 12.145992,4.4642014 11.189849,5.2888465 10.233708,6.1133619 7.7693687,9.2708488 7.1717962,9.6705278 6.5742235,10.070077 6.4418186,10.205464 5.6951121,10.205724 4.9484057,10.205853 3.7829574,9.1495964 3.7373095,7.8296975 3.6916616,6.5095391 3.6732468,6.0403512 4.5908736,4.4501958 5.5085003,2.8597811 7.1710181,2.37153 8.4044194,2.2067047 9.6378204,2.0417498 10.379081,2.476183 11.29152,2.4782579 12.20383,2.4803298 13.105505,2.3228994 13.371353,1.5972014 13.241282,1.6747508 13.06686,1.7620266 12.576664,1.7363496 12.086338,1.7106728 11.406547,1.1430565 10.641815,0.76270049 9.8766944,0.38234442 9.0258534,0.33786364 7.9341941,0.3171146 6.8426643,0.29636555 5.4806188,0.37988048 4.1312821,1.1083018 2.7820751,1.8369825 1.8609469,2.6098847 1.0783186,4.0354742 0.29569039,5.4611933 0.17871761,6.6252151 0.30489777,8.3515361 0.43107794,10.077728 0.9635504,11.361575 1.9886832,12.625062 3.013816,13.88855 4.0383004,14.506742 5.8856143,14.736538 L 6.2745293,13.02124 5.5802143,14.017454 5.5974614,12.909325 4.9694136,13.688711 4.6939699,12.631807 4.1852292,13.479145 3.9326095,12.299173 3.1953697,12.895449 3.4287966,11.9218 2.4532022,12.029824 2.9012519,11.353145 2.0117661,11.363905 2.5293257,10.460418 1.7402134,10.335146 2.3694284,9.5133529 1.4033007,9.2270164 2.2031766,8.4608577 1.4134158,7.817248 2.0310891,7.3366481 1.4533578,6.5678958 2.0696045,5.8504974 1.8396791,4.9030439 2.3629443,4.4469537 2.5186918,3.3641127 3.1060196,3.0692168 3.611259,2.224082 4.5452257,2.1248756 5.0061139,1.3646823 5.9441007,1.4124051 6.830604,0.93063809 7.7499166,1.1446127 8.7941126,0.82935679 9.5675334,1.010522 10.576845,1.1588776 11.551401,1.9381342 10.056562,1.4162956 9.3046688,1.7768103 8.6831051,1.3974918 8.2551559,1.6882378 7.4980749,1.7639719 6.8190622,1.7201395 6.3240678,2.3244556 5.3150154,2.3348301 4.9550195,3.1488413 4.0578823,3.4635785 3.9739783,4.3993607 3.3304984,4.9033032 3.5448621,5.7838411 2.9893062,6.6983554 3.4154399,7.4982314 2.9960496,8.2304135 3.5540695,8.5945594 3.4275002,9.7712898 l 0.7762739,0.19556 0.1748108,0.8728872 0.8457831,-0.08793 0.5254697,0.598091 0.6494454,-0.634143 C 7.5832757,10.125321 8.0708784,9.7950218 8.9936925,8.797122 10.044112,7.6611114 10.646094,6.6106907 12.045229,5.8326013 13.048705,5.274841 13.867255,5.0739642 14.994577,5.2687459 c 1.058332,0.182851 1.412751,0.8177719 2.192267,1.4865398 0.08261,-0.1495229 0.09934,-0.1893351 0.235502,-0.2993051 -0.0428,0.1941334 -0.110619,0.3956585 -0.127866,0.5825297 z"
     id="path179"
     style="stroke-width:0.129682" />
  <metadata
     id="metadata396">
    <rdf:RDF>
      <cc:Work
         rdf:about="">
        <cc:license
           rdf:resource="https://www.gnu.org/licenses/fdl-1.3.html" />
      </cc:Work>
    </rdf:RDF>
  </metadata>
</svg>
